# Blender 3.5.0
# www.blender.org
mtllib test2.mtl
o Plane
v -6.520000 0.000000 5.191490
v 6.520000 0.000000 5.191490
v -6.520000 0.000000 -19.493265
v 6.520000 0.000000 -19.493265
vn -0.0000 1.0000 -0.0000
vt 0.000000 0.000000
vt 1.000000 0.000000
vt 0.000000 1.000000
vt 1.000000 1.000000
s 0
f 1/1/1 2/2/1 4/4/1 3/3/1
o Cube
v -7.300000 -1.000000 -0.410888
v -7.300000 1.000000 -0.410888
v -7.300000 -1.000000 -13.890888
v -7.300000 1.000000 -13.890888
v -5.920000 -1.000000 -0.410888
v -5.920000 1.000000 -0.410888
v -5.920000 -1.000000 -13.890888
v -5.920000 1.000000 -13.890888
vn -1.0000 -0.0000 -0.0000
vn -0.0000 -0.0000 -1.0000
vn 1.0000 -0.0000 -0.0000
vn -0.0000 -0.0000 1.0000
vn -0.0000 -1.0000 -0.0000
vn -0.0000 1.0000 -0.0000
vt 0.375000 0.000000
vt 0.375000 1.000000
vt 0.125000 0.750000
vt 0.625000 0.000000
vt 0.625000 1.000000
vt 0.875000 0.750000
vt 0.375000 0.250000
vt 0.125000 0.500000
vt 0.625000 0.250000
vt 0.875000 0.500000
vt 0.375000 0.750000
vt 0.625000 0.750000
vt 0.375000 0.500000
vt 0.625000 0.500000
s 0
f 5/5/2 6/8/2 8/13/2 7/11/2
f 7/11/3 8/13/3 12/18/3 11/17/3
f 11/17/4 12/18/4 10/16/4 9/15/4
f 9/15/5 10/16/5 6/9/5 5/6/5
f 7/12/6 11/17/6 9/15/6 5/7/6
f 12/18/7 8/14/7 6/10/7 10/16/7
o Cube.001
v 6.040000 -1.000000 -0.410888
v 6.040000 1.000000 -0.410888
v 6.040000 -1.000000 -13.890888
v 6.040000 1.000000 -13.890888
v 7.420001 -1.000000 -0.410888
v 7.420001 1.000000 -0.410888
v 7.420001 -1.000000 -13.890888
v 7.420001 1.000000 -13.890888
vn -1.0000 -0.0000 -0.0000
vn -0.0000 -0.0000 -1.0000
vn 1.0000 -0.0000 -0.0000
vn -0.0000 -0.0000 1.0000
vn -0.0000 -1.0000 -0.0000
vn -0.0000 1.0000 -0.0000
vt 0.375000 0.000000
vt 0.375000 1.000000
vt 0.125000 0.750000
vt 0.625000 0.000000
vt 0.625000 1.000000
vt 0.875000 0.750000
vt 0.375000 0.250000
vt 0.125000 0.500000
vt 0.625000 0.250000
vt 0.875000 0.500000
vt 0.375000 0.750000
vt 0.625000 0.750000
vt 0.375000 0.500000
vt 0.625000 0.500000
s 0
f 13/19/8 14/22/8 16/27/8 15/25/8
f 15/25/9 16/27/9 20/32/9 19/31/9
f 19/31/10 20/32/10 18/30/10 17/29/10
f 17/29/11 18/30/11 14/23/11 13/20/11
f 15/26/12 19/31/12 17/29/12 13/21/12
f 20/32/13 16/28/13 14/24/13 18/30/13
o Cube.002
v 6.630000 -1.000000 0.961969
v 6.630000 1.000000 0.961969
v -6.849999 -1.000000 0.961969
v -6.849999 1.000000 0.961969
v 6.630000 -1.000000 -0.418031
v 6.630000 1.000000 -0.418031
v -6.849999 -1.000000 -0.418031
v -6.849999 1.000000 -0.418031
vn -0.0000 -0.0000 1.0000
vn -1.0000 -0.0000 -0.0000
vn -0.0000 -0.0000 -1.0000
vn 1.0000 -0.0000 -0.0000
vn -0.0000 -1.0000 -0.0000
vn -0.0000 1.0000 -0.0000
vt 0.375000 0.000000
vt 0.375000 1.000000
vt 0.125000 0.750000
vt 0.625000 0.000000
vt 0.625000 1.000000
vt 0.875000 0.750000
vt 0.375000 0.250000
vt 0.125000 0.500000
vt 0.625000 0.250000
vt 0.875000 0.500000
vt 0.375000 0.750000
vt 0.625000 0.750000
vt 0.375000 0.500000
vt 0.625000 0.500000
s 0
f 21/33/14 22/36/14 24/41/14 23/39/14
f 23/39/15 24/41/15 28/46/15 27/45/15
f 27/45/16 28/46/16 26/44/16 25/43/16
f 25/43/17 26/44/17 22/37/17 21/34/17
f 23/40/18 27/45/18 25/43/18 21/35/18
f 28/46/19 24/42/19 22/38/19 26/44/19
o Cube.003
v 6.750000 -1.000000 -12.740888
v 6.750000 1.000000 -12.740888
v -6.730000 -1.000000 -12.740887
v -6.730000 1.000000 -12.740887
v 6.750000 -1.000000 -14.120888
v 6.750000 1.000000 -14.120888
v -6.730000 -1.000000 -14.120887
v -6.730000 1.000000 -14.120887
vn -0.0000 -0.0000 1.0000
vn -1.0000 -0.0000 -0.0000
vn -0.0000 -0.0000 -1.0000
vn 1.0000 -0.0000 -0.0000
vn -0.0000 -1.0000 -0.0000
vn -0.0000 1.0000 -0.0000
vt 0.375000 0.000000
vt 0.375000 1.000000
vt 0.125000 0.750000
vt 0.625000 0.000000
vt 0.625000 1.000000
vt 0.875000 0.750000
vt 0.375000 0.250000
vt 0.125000 0.500000
vt 0.625000 0.250000
vt 0.875000 0.500000
vt 0.375000 0.750000
vt 0.625000 0.750000
vt 0.375000 0.500000
vt 0.625000 0.500000
s 0
f 29/47/20 30/50/20 32/55/20 31/53/20
f 31/53/21 32/55/21 36/60/21 35/59/21
f 35/59/22 36/60/22 34/58/22 33/57/22
f 33/57/23 34/58/23 30/51/23 29/48/23
f 31/54/24 35/59/24 33/57/24 29/49/24
f 36/60/25 32/56/25 30/52/25 34/58/25
o Cube.004
v 0.650000 -1.000000 -6.450888
v 0.650000 1.000000 -6.450888
v -12.830000 -1.000000 -6.450888
v -12.830000 1.000000 -6.450888
v 0.650000 -1.000000 -7.830888
v 0.650000 1.000000 -7.830888
v -12.830000 -1.000000 -7.830887
v -12.830000 1.000000 -7.830887
vn -0.0000 -0.0000 1.0000
vn -1.0000 -0.0000 -0.0000
vn -0.0000 -0.0000 -1.0000
vn 1.0000 -0.0000 -0.0000
vn -0.0000 -1.0000 -0.0000
vn -0.0000 1.0000 -0.0000
vt 0.375000 0.000000
vt 0.375000 1.000000
vt 0.125000 0.750000
vt 0.625000 0.000000
vt 0.625000 1.000000
vt 0.875000 0.750000
vt 0.375000 0.250000
vt 0.125000 0.500000
vt 0.625000 0.250000
vt 0.875000 0.500000
vt 0.375000 0.750000
vt 0.625000 0.750000
vt 0.375000 0.500000
vt 0.625000 0.500000
s 0
f 37/61/26 38/64/26 40/69/26 39/67/26
f 39/67/27 40/69/27 44/74/27 43/73/27
f 43/73/28 44/74/28 42/72/28 41/71/28
f 41/71/29 42/72/29 38/65/29 37/62/29
f 39/68/30 43/73/30 41/71/30 37/63/30
f 44/74/31 40/70/31 38/66/31 42/72/31
o Cube.005
v 2.420000 -1.000000 -9.080888
v 2.420000 1.000000 -9.080888
v 0.380000 -1.000000 -9.080887
v 0.380000 1.000000 -9.080887
v 2.420000 -1.000000 -10.460888
v 2.420000 1.000000 -10.460888
v 0.380000 -1.000000 -10.460887
v 0.380000 1.000000 -10.460887
vn -0.0000 -0.0000 1.0000
vn -1.0000 -0.0000 -0.0000
vn -0.0000 -0.0000 -1.0000
vn 1.0000 -0.0000 -0.0000
vn -0.0000 -1.0000 -0.0000
vn -0.0000 1.0000 -0.0000
vt 0.375000 0.000000
vt 0.375000 1.000000
vt 0.125000 0.750000
vt 0.625000 0.000000
vt 0.625000 1.000000
vt 0.875000 0.750000
vt 0.375000 0.250000
vt 0.125000 0.500000
vt 0.625000 0.250000
vt 0.875000 0.500000
vt 0.375000 0.750000
vt 0.625000 0.750000
vt 0.375000 0.500000
vt 0.625000 0.500000
s 0
f 45/75/32 46/78/32 48/83/32 47/81/32
f 47/81/33 48/83/33 52/88/33 51/87/33
f 51/87/34 52/88/34 50/86/34 49/85/34
f 49/85/35 50/86/35 46/79/35 45/76/35
f 47/82/36 51/87/36 49/85/36 45/77/36
f 52/88/37 48/84/37 46/80/37 50/86/37
o Cube.006
v 4.750000 -1.000000 -4.630888
v 4.750000 1.000000 -4.630888
v 2.710000 -1.000000 -4.630888
v 2.710000 1.000000 -4.630888
v 4.750000 -1.000000 -6.010888
v 4.750000 1.000000 -6.010888
v 2.710000 -1.000000 -6.010888
v 2.710000 1.000000 -6.010888
vn -0.0000 -0.0000 1.0000
vn -1.0000 -0.0000 -0.0000
vn -0.0000 -0.0000 -1.0000
vn 1.0000 -0.0000 -0.0000
vn -0.0000 -1.0000 -0.0000
vn -0.0000 1.0000 -0.0000
vt 0.375000 0.000000
vt 0.375000 1.000000
vt 0.125000 0.750000
vt 0.625000 0.000000
vt 0.625000 1.000000
vt 0.875000 0.750000
vt 0.375000 0.250000
vt 0.125000 0.500000
vt 0.625000 0.250000
vt 0.875000 0.500000
vt 0.375000 0.750000
vt 0.625000 0.750000
vt 0.375000 0.500000
vt 0.625000 0.500000
s 0
f 53/89/38 54/92/38 56/97/38 55/95/38
f 55/95/39 56/97/39 60/102/39 59/101/39
f 59/101/40 60/102/40 58/100/40 57/99/40
f 57/99/41 58/100/41 54/93/41 53/90/41
f 55/96/42 59/101/42 57/99/42 53/91/42
f 60/102/43 56/98/43 54/94/43 58/100/43
o Plane.001
v -6.520000 4.416591 20.700861
v 6.520000 4.416591 20.700861
v -6.520000 4.416591 8.580862
v 6.520000 4.416591 8.580862
vn -0.0000 1.0000 -0.0000
vt 0.000000 0.000000
vt 1.000000 0.000000
vt 0.000000 1.000000
vt 1.000000 1.000000
s 0
f 61/103/44 62/104/44 64/106/44 63/105/44
o Cube.007
v 4.750000 3.416591 17.160862
v 4.750000 5.416591 17.160862
v 2.710000 3.416591 17.160862
v 2.710000 5.416591 17.160862
v 4.750000 3.416591 15.780861
v 4.750000 5.416591 15.780861
v 2.710000 3.416591 15.780862
v 2.710000 5.416591 15.780862
vn -0.0000 -0.0000 1.0000
vn -1.0000 -0.0000 -0.0000
vn -0.0000 -0.0000 -1.0000
vn 1.0000 -0.0000 -0.0000
vn -0.0000 -1.0000 -0.0000
vn -0.0000 1.0000 -0.0000
vt 0.375000 0.000000
vt 0.375000 1.000000
vt 0.125000 0.750000
vt 0.625000 0.000000
vt 0.625000 1.000000
vt 0.875000 0.750000
vt 0.375000 0.250000
vt 0.125000 0.500000
vt 0.625000 0.250000
vt 0.875000 0.500000
vt 0.375000 0.750000
vt 0.625000 0.750000
vt 0.375000 0.500000
vt 0.625000 0.500000
s 0
f 65/107/45 66/110/45 68/115/45 67/113/45
f 67/113/46 68/115/46 72/120/46 71/119/46
f 71/119/47 72/120/47 70/118/47 69/117/47
f 69/117/48 70/118/48 66/111/48 65/108/48
f 67/114/49 71/119/49 69/117/49 65/109/49
f 72/120/50 68/116/50 66/112/50 70/118/50
o Cube.008
v 2.420000 3.416591 12.710861
v 2.420000 5.416591 12.710861
v 0.380000 3.416591 12.710861
v 0.380000 5.416591 12.710861
v 2.420000 3.416591 11.330862
v 2.420000 5.416591 11.330862
v 0.380000 3.416591 11.330862
v 0.380000 5.416591 11.330862
vn -0.0000 -0.0000 1.0000
vn -1.0000 -0.0000 -0.0000
vn -0.0000 -0.0000 -1.0000
vn 1.0000 -0.0000 -0.0000
vn -0.0000 -1.0000 -0.0000
vn -0.0000 1.0000 -0.0000
vt 0.375000 0.000000
vt 0.375000 1.000000
vt 0.125000 0.750000
vt 0.625000 0.000000
vt 0.625000 1.000000
vt 0.875000 0.750000
vt 0.375000 0.250000
vt 0.125000 0.500000
vt 0.625000 0.250000
vt 0.875000 0.500000
vt 0.375000 0.750000
vt 0.625000 0.750000
vt 0.375000 0.500000
vt 0.625000 0.500000
s 0
f 73/121/51 74/124/51 76/129/51 75/127/51
f 75/127/52 76/129/52 80/134/52 79/133/52
f 79/133/53 80/134/53 78/132/53 77/131/53
f 77/131/54 78/132/54 74/125/54 73/122/54
f 75/128/55 79/133/55 77/131/55 73/123/55
f 80/134/56 76/130/56 74/126/56 78/132/56
o Cube.009
v 0.650000 3.416591 15.340861
v 0.650000 5.416591 15.340861
v -12.830000 3.416591 15.340862
v -12.830000 5.416591 15.340862
v 0.650000 3.416591 13.960861
v 0.650000 5.416591 13.960861
v -12.830000 3.416591 13.960862
v -12.830000 5.416591 13.960862
vn -0.0000 -0.0000 1.0000
vn -1.0000 -0.0000 -0.0000
vn -0.0000 -0.0000 -1.0000
vn 1.0000 -0.0000 -0.0000
vn -0.0000 -1.0000 -0.0000
vn -0.0000 1.0000 -0.0000
vt 0.375000 0.000000
vt 0.375000 1.000000
vt 0.125000 0.750000
vt 0.625000 0.000000
vt 0.625000 1.000000
vt 0.875000 0.750000
vt 0.375000 0.250000
vt 0.125000 0.500000
vt 0.625000 0.250000
vt 0.875000 0.500000
vt 0.375000 0.750000
vt 0.625000 0.750000
vt 0.375000 0.500000
vt 0.625000 0.500000
s 0
f 81/135/57 82/138/57 84/143/57 83/141/57
f 83/141/58 84/143/58 88/148/58 87/147/58
f 87/147/59 88/148/59 86/146/59 85/145/59
f 85/145/60 86/146/60 82/139/60 81/136/60
f 83/142/61 87/147/61 85/145/61 81/137/61
f 88/148/62 84/144/62 82/140/62 86/146/62
o Cube.011
v 6.630000 3.416591 21.730862
v 6.630000 5.416591 21.730862
v -6.849999 3.416591 21.730862
v -6.849999 5.416591 21.730862
v 6.630000 3.416591 20.350861
v 6.630000 5.416591 20.350861
v -6.849999 3.416591 20.350861
v -6.849999 5.416591 20.350861
vn -0.0000 -0.0000 1.0000
vn -1.0000 -0.0000 -0.0000
vn -0.0000 -0.0000 -1.0000
vn 1.0000 -0.0000 -0.0000
vn -0.0000 -1.0000 -0.0000
vn -0.0000 1.0000 -0.0000
vt 0.375000 0.000000
vt 0.375000 1.000000
vt 0.125000 0.750000
vt 0.625000 0.000000
vt 0.625000 1.000000
vt 0.875000 0.750000
vt 0.375000 0.250000
vt 0.125000 0.500000
vt 0.625000 0.250000
vt 0.875000 0.500000
vt 0.375000 0.750000
vt 0.625000 0.750000
vt 0.375000 0.500000
vt 0.625000 0.500000
s 0
f 89/149/63 90/152/63 92/157/63 91/155/63
f 91/155/64 92/157/64 96/162/64 95/161/64
f 95/161/65 96/162/65 94/160/65 93/159/65
f 93/159/66 94/160/66 90/153/66 89/150/66
f 91/156/67 95/161/67 93/159/67 89/151/67
f 96/162/68 92/158/68 90/154/68 94/160/68
o Cube.012
v 6.040000 3.416591 21.380861
v 6.040000 5.416591 21.380861
v 6.040000 3.416591 7.900862
v 6.040000 5.416591 7.900862
v 7.420001 3.416591 21.380861
v 7.420001 5.416591 21.380861
v 7.420001 3.416591 7.900862
v 7.420001 5.416591 7.900862
vn -1.0000 -0.0000 -0.0000
vn -0.0000 -0.0000 -1.0000
vn 1.0000 -0.0000 -0.0000
vn -0.0000 -0.0000 1.0000
vn -0.0000 -1.0000 -0.0000
vn -0.0000 1.0000 -0.0000
vt 0.375000 0.000000
vt 0.375000 1.000000
vt 0.125000 0.750000
vt 0.625000 0.000000
vt 0.625000 1.000000
vt 0.875000 0.750000
vt 0.375000 0.250000
vt 0.125000 0.500000
vt 0.625000 0.250000
vt 0.875000 0.500000
vt 0.375000 0.750000
vt 0.625000 0.750000
vt 0.375000 0.500000
vt 0.625000 0.500000
s 0
f 97/163/69 98/166/69 100/171/69 99/169/69
f 99/169/70 100/171/70 104/176/70 103/175/70
f 103/175/71 104/176/71 102/174/71 101/173/71
f 101/173/72 102/174/72 98/167/72 97/164/72
f 99/170/73 103/175/73 101/173/73 97/165/73
f 104/176/74 100/172/74 98/168/74 102/174/74
o Cube.013
v -7.300000 3.416591 21.380861
v -7.300000 5.416591 21.380861
v -7.300000 3.416591 7.900862
v -7.300000 5.416591 7.900862
v -5.920000 3.416591 21.380861
v -5.920000 5.416591 21.380861
v -5.920000 3.416591 7.900862
v -5.920000 5.416591 7.900862
vn -1.0000 -0.0000 -0.0000
vn -0.0000 -0.0000 -1.0000
vn 1.0000 -0.0000 -0.0000
vn -0.0000 -0.0000 1.0000
vn -0.0000 -1.0000 -0.0000
vn -0.0000 1.0000 -0.0000
vt 0.375000 0.000000
vt 0.375000 1.000000
vt 0.125000 0.750000
vt 0.625000 0.000000
vt 0.625000 1.000000
vt 0.875000 0.750000
vt 0.375000 0.250000
vt 0.125000 0.500000
vt 0.625000 0.250000
vt 0.875000 0.500000
vt 0.375000 0.750000
vt 0.625000 0.750000
vt 0.375000 0.500000
vt 0.625000 0.500000
s 0
f 105/177/75 106/180/75 108/185/75 107/183/75
f 107/183/76 108/185/76 112/190/76 111/189/76
f 111/189/77 112/190/77 110/188/77 109/187/77
f 109/187/78 110/188/78 106/181/78 105/178/78
f 107/184/79 111/189/79 109/187/79 105/179/79
f 112/190/80 108/186/80 106/182/80 110/188/80
o Plane.002
v -6.520000 4.519165 8.627506
v 6.520000 4.519165 8.627506
v -6.520000 0.160928 -2.681790
v 6.520000 0.160928 -2.681790
vn -0.0000 0.9331 -0.3596
vt 0.000000 0.000000
vt 1.000000 0.000000
vt 0.000000 1.000000
vt 1.000000 1.000000
s 0
f 113/191/81 114/192/81 116/194/81 115/193/81
